<svg width="44" height="44" viewBox="0 0 44 44" fill="none" xmlns="http://www.w3.org/2000/svg">
<circle cx="22" cy="22" r="22" fill="white"/>
<path d="M26.6962 13.1583C26.5939 13.1583 26.4917 13.1193 26.4137 13.0413C26.2576 12.8852 26.2576 12.6323 26.4137 12.4763L33.1728 5.71708C33.3289 5.5611 33.5818 5.5611 33.7378 5.71708C33.8939 5.87316 33.8939 6.12607 33.7378 6.28214L26.9787 13.0413C26.9007 13.1193 26.7984 13.1583 26.6962 13.1583V13.1583Z" fill="#AABBE5"/>
<path d="M25.1124 11.5264L24.5797 12.0592L27.3955 14.875L27.9282 14.3423C28.3485 13.922 28.3485 13.2405 27.9282 12.8202L26.6345 11.5265C26.2142 11.1061 25.5328 11.1061 25.1124 11.5264V11.5264Z" fill="#111C63"/>
<path d="M19.2945 26.2564L13.1986 20.1604C12.9905 19.9524 12.6532 19.9524 12.4452 20.1604L11.9048 20.7008C11.6968 20.9088 11.6968 21.2461 11.9048 21.4542L18.0007 27.5501C18.2088 27.7581 18.5461 27.7581 18.7541 27.5501L19.2945 27.0097C19.5025 26.8017 19.5025 26.4644 19.2945 26.2564Z" fill="#111C63"/>
<path d="M27.5098 14.9895L24.4657 11.9453C24.0454 11.5251 23.3639 11.5251 22.9436 11.9453L13.9634 20.9255L18.5296 25.4918L27.5098 16.5116C27.9301 16.0912 27.9301 15.4098 27.5098 14.9895V14.9895Z" fill="#E9EFFF"/>
<path d="M19.1384 18.1858L16.7754 20.5488C16.5674 20.7569 16.5674 21.0942 16.7754 21.3022L18.1529 22.6797C18.361 22.8877 18.6983 22.8877 18.9063 22.6797L21.2693 20.3167L19.1384 18.1858Z" fill="#567FEA"/>
<path d="M8.9668 28.1055L13.7606 23.3117L16.1385 25.6895L11.3447 30.4833L8.9668 28.1055Z" fill="#C2CFF1"/>
<path d="M23.328 13.9959L19.1384 18.1854L21.2693 20.3163L25.4588 16.1268C25.6669 15.9188 25.6669 15.5815 25.4588 15.3734L24.0813 13.9959C23.8733 13.7878 23.536 13.7878 23.328 13.9959V13.9959Z" fill="#C2CFF1"/>
<path d="M11.667 30.8052L8.64961 27.7879C8.44158 27.5798 8.10428 27.5798 7.89624 27.7879L7.35585 28.3283C7.14782 28.5363 7.14782 28.8736 7.35585 29.0816L10.3732 32.099C10.5813 32.307 10.9186 32.307 11.1266 32.099L11.667 31.5586C11.875 31.3506 11.875 31.0133 11.667 30.8052Z" fill="#111C63"/>
<path d="M9.87585 29.014L10.4409 29.5791L15.2354 24.7845H15.2354L14.6704 24.2195L9.87585 29.014Z" fill="#111C63"/>
<circle cx="28.0356" cy="27.2448" r="8.00213" fill="#ED4C4C"/>
<circle cx="34.8348" cy="20.4455" r="0.67992" fill="#FF8E8E"/>
<circle cx="36.9269" cy="29.6509" r="0.67992" fill="#FF8E8E"/>
<circle cx="25.2113" cy="17.9353" r="0.67992" fill="#FF8E8E"/>
<circle cx="18.6213" cy="24.8389" r="0.67992" fill="#FF8E8E"/>
<circle cx="21.1318" cy="34.0439" r="0.67992" fill="#FF8E8E"/>
<circle cx="30.2323" cy="36.3452" r="0.67992" fill="#FF8E8E"/>
<circle cx="35.0524" cy="34.8893" r="0.989077" transform="rotate(15 35.0524 34.8893)" fill="#ED4C4C"/>
<circle cx="38.0859" cy="24.6384" r="0.989077" transform="rotate(15 38.0859 24.6384)" fill="#ED4C4C"/>
<circle cx="30.6591" cy="17.2114" r="0.989077" transform="rotate(15 30.6591 17.2114)" fill="#ED4C4C"/>
<circle cx="20.3034" cy="20.0358" r="0.989077" transform="rotate(15 20.3034 20.0358)" fill="#ED4C4C"/>
<circle cx="18.2113" cy="29.9731" r="0.989077" transform="rotate(15 18.2113 29.9731)" fill="#ED4C4C"/>
<circle cx="25.1152" cy="36.9814" r="0.989077" transform="rotate(15 25.1152 36.9814)" fill="#ED4C4C"/>
<rect x="30.1881" y="17.5691" width="0.523015" height="3.3473" rx="0.261508" transform="rotate(14.6217 30.1881 17.5691)" fill="#ED4C4C"/>
<rect x="34.4734" y="20.498" width="0.523015" height="2.56809" rx="0.261508" transform="rotate(46.0649 34.4734 20.498)" fill="#FF8E8E"/>
<rect x="37.3475" y="24.5774" width="0.523015" height="3.3473" rx="0.261508" transform="rotate(80.0733 37.3475 24.5774)" fill="#ED4C4C"/>
<rect x="36.8097" y="29.3569" width="0.523015" height="1.88827" rx="0.261508" transform="rotate(100.245 36.8097 29.3569)" fill="#FF8E8E"/>
<rect x="34.8397" y="34.135" width="0.523015" height="3.3473" rx="0.261508" transform="rotate(139.6 34.8397 34.135)" fill="#ED4C4C"/>
<rect x="30.502" y="36.2302" width="0.523015" height="2.31309" rx="0.261508" transform="rotate(168.88 30.502 36.2302)" fill="#FF8E8E"/>
<rect x="21.3472" y="34.3352" width="0.523015" height="2.55328" rx="0.261508" transform="rotate(-135.365 21.3472 34.3352)" fill="#FF8E8E"/>
<rect x="18.4645" y="25.0862" width="0.523015" height="2.55756" rx="0.261508" transform="rotate(-76.5227 18.4645 25.0862)" fill="#FF8E8E"/>
<rect x="24.9498" y="17.6768" width="0.523015" height="3.3473" rx="0.261508" transform="rotate(-11.8719 24.9498 17.6768)" fill="#FF8E8E"/>
<rect width="1.00217" height="3.30828" rx="0.501083" transform="matrix(0.963464 0.267838 0.267838 -0.963464 24.7629 36.7573)" fill="#ED4C4C"/>
<rect width="1.00217" height="3.30828" rx="0.501083" transform="matrix(0.329272 0.944235 0.944235 -0.329272 18.2552 29.4326)" fill="#ED4C4C"/>
<rect width="1.00217" height="3.30828" rx="0.501083" transform="matrix(-0.693263 0.720684 0.720684 0.693263 20.9375 19.7656)" fill="#ED4C4C"/>
<circle opacity="0.2" cx="31.5398" cy="25.5189" r="1.04603" fill="white"/>
<circle opacity="0.2" cx="22.8578" cy="27.1925" r="1.04603" fill="white"/>
<circle opacity="0.2" cx="28.2449" cy="31.0105" r="1.62135" fill="white"/>
<circle opacity="0.2" cx="28.7155" cy="27.1924" r="0.732221" fill="white"/>
<circle opacity="0.2" cx="31.5398" cy="30.3306" r="0.732221" fill="white"/>
<circle opacity="0.2" cx="27.7219" cy="23.5837" r="2.03976" fill="white"/>
</svg>
